<?xml version="1.0" encoding="UTF-8"?>
<svg xmlns="http://www.w3.org/2000/svg" xmlns:xlink="http://www.w3.org/1999/xlink" width="663" height="187" viewBox="213 445 663 187">
<path fill-rule="nonzero" fill="rgb(48.626709%, 52.549744%, 55.686951%)" fill-opacity="1" d="M 833.558594 468.0625 C 860.160156 473.183594 868.214844 497.902344 844.363281 511.675781 L 779.546875 549.058594 L 757.941406 536.597656 L 822.757812 499.214844 C 837.609375 490.050781 839.953125 481.34375 833.558594 468.0625 "/>
<path fill-rule="nonzero" fill="rgb(52.941895%, 39.215088%, 67.059326%)" fill-opacity="1" d="M 833.558594 517.90625 C 860.160156 523.023438 868.214844 547.75 844.363281 561.519531 L 779.546875 598.898438 L 757.941406 586.441406 L 822.757812 549.058594 C 837.609375 539.894531 839.953125 531.1875 833.558594 517.90625 "/>
<path fill-rule="nonzero" fill="rgb(52.941895%, 39.215088%, 67.059326%)" fill-opacity="1" d="M 843.800781 611.6875 L 822.753906 623.824219 L 801.152344 611.363281 L 822.753906 598.902344 Z M 843.800781 611.6875 "/>
<path fill-rule="nonzero" fill="rgb(69.804382%, 70.980835%, 72.549438%)" fill-opacity="1" d="M 833.558594 468.0625 C 828.320312 457.390625 816.550781 452.953125 806.550781 458.714844 L 757.941406 486.753906 L 778.226562 498.453125 L 825.640625 470.714844 C 828.132812 469.308594 830.867188 468.355469 833.558594 468.0625 "/>
<path fill-rule="nonzero" fill="rgb(100%, 100%, 100%)" fill-opacity="1" d="M 265.210938 569.660156 C 262.335938 571.777344 258.085938 572.832031 252.457031 572.832031 L 238.105469 572.832031 L 238.105469 548.5 L 253.75 548.5 C 258.554688 548.5 262.386719 549.554688 265.242188 551.671875 C 268.097656 553.785156 269.523438 556.671875 269.523438 560.324219 C 269.523438 564.433594 268.085938 567.542969 265.210938 569.660156 M 238.105469 512.765625 L 250.054688 512.765625 C 253.875 512.765625 256.957031 513.742188 259.296875 515.691406 C 261.640625 517.640625 262.808594 520.28125 262.808594 523.605469 C 262.808594 527.347656 261.535156 530.261719 258.988281 532.355469 C 256.441406 534.449219 252.972656 535.5 248.578125 535.5 L 238.105469 535.5 Z M 267.617188 539.628906 L 267.617188 538.886719 C 271.558594 537.117188 274.566406 534.738281 276.640625 531.738281 C 278.710938 528.742188 279.75 525.269531 279.75 521.328125 C 279.75 515.164062 277.265625 510.035156 272.296875 505.925781 C 267.328125 501.816406 260.898438 499.765625 253.011719 499.765625 L 221.46875 499.765625 L 221.46875 585.832031 L 257.511719 585.832031 C 263.382812 585.832031 268.488281 584.886719 272.820312 582.996094 C 277.152344 581.109375 280.542969 578.285156 282.984375 574.523438 C 285.429688 570.769531 286.652344 566.507812 286.652344 561.742188 C 286.652344 556.363281 284.976562 551.671875 281.628906 547.664062 C 278.28125 543.660156 273.609375 540.980469 267.617188 539.628906 "/>
<path fill-rule="nonzero" fill="rgb(100%, 100%, 100%)" fill-opacity="1" d="M 397.308594 570.183594 C 394.003906 566.898438 392.347656 562.5625 392.347656 557.183594 C 392.347656 551.679688 393.992188 547.320312 397.277344 544.089844 C 400.5625 540.871094 404.792969 539.253906 409.96875 539.253906 C 414.773438 539.253906 419.867188 540.816406 425.246094 543.9375 L 425.246094 531.0625 C 419.824219 528.476562 413.765625 527.179688 407.074219 527.179688 C 398.035156 527.179688 390.675781 529.976562 384.984375 535.558594 C 379.296875 541.148438 376.453125 548.519531 376.453125 557.675781 C 376.453125 566.507812 379.359375 573.589844 385.171875 578.929688 C 390.980469 584.269531 398.550781 586.9375 407.871094 586.9375 C 414.199219 586.9375 420.335938 585.730469 426.292969 583.304688 L 426.292969 571.046875 C 419.886719 573.753906 414.628906 575.109375 410.523438 575.109375 C 405.019531 575.109375 400.613281 573.46875 397.308594 570.183594 "/>
<path fill-rule="nonzero" fill="rgb(100%, 100%, 100%)" fill-opacity="1" d="M 470.628906 556.691406 L 493.976562 528.289062 L 476.171875 528.289062 L 452.453125 556.691406 L 478.632812 586.941406 L 488.558594 586.941406 L 493.136719 581.640625 Z M 470.628906 556.691406 "/>
<path fill-rule="nonzero" fill="rgb(100%, 100%, 100%)" fill-opacity="1" d="M 579.246094 572.832031 C 575.921875 575.871094 572.589844 577.394531 569.265625 577.394531 C 567.292969 577.394531 565.640625 576.753906 564.308594 575.480469 C 562.96875 574.207031 562.304688 572.523438 562.304688 570.429688 C 562.304688 568.539062 562.867188 566.9375 564 565.625 C 565.128906 564.3125 566.894531 563.015625 569.296875 561.742188 C 571.699219 560.472656 575.015625 559.117188 579.246094 557.675781 Z M 588.484375 531.894531 C 584.585938 528.75 578.9375 527.179688 571.546875 527.179688 C 562.917969 527.179688 555.464844 529.664062 549.179688 534.636719 L 549.179688 548.25 C 552.015625 545.128906 555.160156 542.769531 558.609375 541.164062 C 562.058594 539.5625 565.527344 538.765625 569.019531 538.765625 C 575.835938 538.765625 579.246094 541.574219 579.246094 547.203125 L 579.246094 549.851562 L 566.988281 553.425781 C 559.59375 555.5625 554.417969 558.066406 551.457031 560.941406 C 548.503906 563.816406 547.023438 567.742188 547.023438 572.707031 C 547.023438 576.613281 548.511719 579.960938 551.492188 582.75 C 554.46875 585.542969 558.03125 586.941406 562.179688 586.941406 C 568.011719 586.941406 573.824219 584.886719 579.617188 580.777344 C 580.191406 583.078125 581.207031 584.683594 582.664062 585.585938 C 584.121094 586.488281 586.207031 586.941406 588.917969 586.941406 C 590.652344 586.941406 592.464844 586.679688 594.339844 586.171875 L 594.339844 545.046875 C 594.339844 539.421875 592.390625 535.035156 588.484375 531.894531 "/>
<path fill-rule="nonzero" fill="rgb(100%, 100%, 100%)" fill-opacity="1" d="M 352.449219 572.832031 C 349.121094 575.871094 345.792969 577.394531 342.464844 577.394531 C 340.496094 577.394531 338.84375 576.753906 337.507812 575.480469 C 336.171875 574.207031 335.507812 572.523438 335.507812 570.429688 C 335.507812 568.539062 336.070312 566.9375 337.199219 565.625 C 338.328125 564.3125 340.097656 563.015625 342.496094 561.742188 C 344.902344 560.472656 348.214844 559.117188 352.449219 557.675781 Z M 361.6875 531.894531 C 357.785156 528.75 352.140625 527.179688 344.746094 527.179688 C 336.121094 527.179688 328.667969 529.664062 322.382812 534.636719 L 322.382812 548.25 C 325.21875 545.128906 328.359375 542.769531 331.808594 541.164062 C 335.257812 539.5625 338.730469 538.765625 342.21875 538.765625 C 349.039062 538.765625 352.449219 541.574219 352.449219 547.203125 L 352.449219 549.851562 L 340.1875 553.425781 C 332.796875 555.5625 327.621094 558.066406 324.664062 560.941406 C 321.707031 563.816406 320.226562 567.742188 320.226562 572.707031 C 320.226562 576.613281 321.714844 579.960938 324.695312 582.75 C 327.667969 585.542969 331.234375 586.941406 335.382812 586.941406 C 341.214844 586.941406 347.027344 584.886719 352.816406 580.777344 C 353.394531 583.078125 354.410156 584.683594 355.867188 585.585938 C 357.324219 586.488281 359.410156 586.941406 362.121094 586.941406 C 363.859375 586.941406 365.664062 586.679688 367.539062 586.171875 L 367.539062 545.046875 C 367.539062 539.421875 365.589844 535.035156 361.6875 531.894531 "/>
<path fill-rule="nonzero" fill="rgb(100%, 100%, 100%)" fill-opacity="1" d="M 493.140625 581.640625 L 488.558594 586.941406 L 497.921875 586.941406 Z M 493.140625 581.640625 "/>
<path fill-rule="nonzero" fill="rgb(100%, 100%, 100%)" fill-opacity="1" d="M 536.425781 558.9375 C 533.777344 556.125 529.167969 553.054688 522.597656 549.726562 C 517.996094 547.429688 515.179688 545.847656 514.15625 544.988281 C 513.128906 544.125 512.617188 543.257812 512.617188 542.398438 C 512.617188 540.878906 513.230469 539.707031 514.464844 538.886719 C 515.695312 538.0625 517.398438 537.652344 519.578125 537.652344 C 522.164062 537.652344 525.101562 538.21875 528.386719 539.347656 C 531.671875 540.476562 534.75 541.964844 537.628906 543.816406 L 537.628906 531.675781 C 534.503906 530.117188 531.546875 528.976562 528.757812 528.257812 C 525.960938 527.539062 522.984375 527.179688 519.824219 527.179688 C 513.335938 527.179688 508.097656 528.699219 504.113281 531.738281 C 500.128906 534.777344 498.136719 538.84375 498.136719 543.9375 C 498.136719 547.511719 499.246094 550.601562 501.464844 553.210938 C 503.683594 555.816406 507.109375 558.230469 511.753906 560.449219 C 517.789062 563.40625 521.382812 565.273438 522.535156 566.054688 C 523.683594 566.832031 524.546875 567.59375 525.121094 568.332031 C 525.695312 569.074219 525.984375 569.894531 525.984375 570.796875 C 525.984375 572.316406 525.183594 573.539062 523.582031 574.464844 C 521.980469 575.386719 519.886719 575.847656 517.296875 575.847656 L 498.367188 575.847656 L 493.140625 581.640625 L 497.921875 586.9375 L 488.558594 586.9375 L 518.960938 586.9375 C 525.53125 586.9375 530.75 585.347656 534.609375 582.164062 C 538.46875 578.980469 540.398438 574.621094 540.398438 569.074219 C 540.398438 565.128906 539.078125 561.753906 536.425781 558.9375 "/>
<path fill-rule="nonzero" fill="rgb(100%, 100%, 100%)" fill-opacity="1" d="M 709.316406 574.25 L 701.371094 574.25 C 689.089844 574.25 682.949219 568.066406 682.949219 555.703125 C 682.949219 550.570312 684.460938 546.425781 687.476562 543.261719 C 690.496094 540.097656 694.53125 538.515625 699.582031 538.515625 C 702.949219 538.515625 706.195312 539.316406 709.316406 540.917969 Z M 709.316406 508.46875 L 709.316406 529.582031 C 704.757812 527.980469 700.464844 527.179688 696.441406 527.179688 C 691.226562 527.179688 686.367188 528.445312 681.871094 530.96875 C 677.375 533.496094 673.839844 536.976562 671.273438 541.410156 C 668.707031 545.847656 667.425781 550.777344 667.425781 556.199219 C 667.425781 565.359375 670.1875 572.585938 675.710938 577.882812 C 681.234375 583.183594 688.597656 585.832031 697.796875 585.832031 L 724.410156 585.832031 L 724.410156 499.765625 Z M 709.316406 508.46875 "/>
<path fill-rule="nonzero" fill="rgb(100%, 100%, 100%)" fill-opacity="1" d="M 653.929688 533.25 C 650.25 529.203125 645.335938 527.179688 639.171875 527.179688 C 635.722656 527.179688 632.53125 527.886719 629.59375 529.304688 C 626.65625 530.722656 623.789062 533.074219 621 536.359375 L 621 526.242188 L 605.84375 534.984375 L 605.84375 585.832031 L 621 585.832031 L 621 547.574219 C 623.464844 544.371094 625.722656 542.078125 627.777344 540.703125 C 629.832031 539.328125 632.027344 538.636719 634.367188 538.636719 C 637.449219 538.636719 639.886719 539.726562 641.671875 541.90625 C 643.453125 544.082031 644.347656 547.039062 644.347656 550.777344 L 644.347656 585.832031 L 659.445312 585.832031 L 659.445312 549.234375 C 659.445312 542.625 657.605469 537.292969 653.929688 533.25 "/>
<path fill-rule="nonzero" fill="rgb(100%, 100%, 100%)" fill-opacity="1" d="M 435.003906 508.503906 L 435.003906 585.828125 L 450.160156 585.828125 L 450.160156 499.765625 Z M 435.003906 508.503906 "/>
<path fill-rule="nonzero" fill="rgb(100%, 100%, 100%)" fill-opacity="1" d="M 294.984375 508.503906 L 294.984375 585.828125 L 310.136719 585.828125 L 310.136719 499.765625 Z M 294.984375 508.503906 "/>
</svg>
